<svg xmlns="http://www.w3.org/2000/svg" width="2976" height="3468" viewBox="0 0 2976 3468">
<rect x="0" y="0" width="100%" height="100%" fill="#ffffff"/>
<style>.title{font-family:Segoe UI,Arial,sans-serif;font-weight:700;font-size:14px;fill:#202020}.body{font-family:Segoe UI,Arial,sans-serif;font-weight:500;font-size:11px;fill:#606060}.root{font-family:Segoe UI,Arial,sans-serif;font-weight:800;font-size:15px;fill:#1c1114}</style>
<path d="M1378.0,1734.0 C1238.0,1734.0 1238.0,532.0 1098.0,532.0" fill="none" stroke="#ff3c93" stroke-width="2.6" stroke-linecap="round" stroke-opacity="0.88"/>
<path d="M902.0,532.0 C782.0,532.0 782.0,314.0 662.0,314.0" fill="none" stroke="#4ef0a5" stroke-width="2.0" stroke-linecap="round" stroke-opacity="0.88"/>
<path d="M476.0,314.0 C371.0,314.0 371.0,197.0 266.0,197.0" fill="none" stroke="#4ef0a5" stroke-width="2.0" stroke-linecap="round" stroke-opacity="0.88"/>
<path d="M476.0,314.0 C371.0,314.0 371.0,314.0 266.0,314.0" fill="none" stroke="#4ef0a5" stroke-width="2.0" stroke-linecap="round" stroke-opacity="0.88"/>
<path d="M476.0,314.0 C371.0,314.0 371.0,431.0 266.0,431.0" fill="none" stroke="#4ef0a5" stroke-width="2.0" stroke-linecap="round" stroke-opacity="0.88"/>
<path d="M902.0,532.0 C782.0,532.0 782.0,649.0 662.0,649.0" fill="none" stroke="#4ef0a5" stroke-width="2.0" stroke-linecap="round" stroke-opacity="0.88"/>
<path d="M476.0,649.0 C371.0,649.0 371.0,540.0 266.0,540.0" fill="none" stroke="#4ef0a5" stroke-width="2.0" stroke-linecap="round" stroke-opacity="0.88"/>
<path d="M476.0,649.0 C371.0,649.0 371.0,649.0 266.0,649.0" fill="none" stroke="#4ef0a5" stroke-width="2.0" stroke-linecap="round" stroke-opacity="0.88"/>
<path d="M476.0,649.0 C371.0,649.0 371.0,758.0 266.0,758.0" fill="none" stroke="#4ef0a5" stroke-width="2.0" stroke-linecap="round" stroke-opacity="0.88"/>
<path d="M902.0,532.0 C782.0,532.0 782.0,867.0 662.0,867.0" fill="none" stroke="#4ef0a5" stroke-width="2.0" stroke-linecap="round" stroke-opacity="0.88"/>
<path d="M1598.0,1734.0 C1738.0,1734.0 1738.0,227.0 1878.0,227.0" fill="none" stroke="#ff3c93" stroke-width="2.6" stroke-linecap="round" stroke-opacity="0.88"/>
<path d="M2074.0,227.0 C2194.0,227.0 2194.0,125.5 2314.0,125.5" fill="none" stroke="#31d7ff" stroke-width="2.0" stroke-linecap="round" stroke-opacity="0.88"/>
<path d="M2074.0,227.0 C2194.0,227.0 2194.0,242.5 2314.0,242.5" fill="none" stroke="#31d7ff" stroke-width="2.0" stroke-linecap="round" stroke-opacity="0.88"/>
<path d="M2074.0,227.0 C2194.0,227.0 2194.0,344.0 2314.0,344.0" fill="none" stroke="#31d7ff" stroke-width="2.0" stroke-linecap="round" stroke-opacity="0.88"/>
<path d="M1378.0,1734.0 C1238.0,1734.0 1238.0,1357.5 1098.0,1357.5" fill="none" stroke="#ff3c93" stroke-width="2.6" stroke-linecap="round" stroke-opacity="0.88"/>
<path d="M902.0,1357.5 C782.0,1357.5 782.0,1139.5 662.0,1139.5" fill="none" stroke="#ff6aa8" stroke-width="2.0" stroke-linecap="round" stroke-opacity="0.88"/>
<path d="M476.0,1139.5 C371.0,1139.5 371.0,976.0 266.0,976.0" fill="none" stroke="#ff6aa8" stroke-width="2.0" stroke-linecap="round" stroke-opacity="0.88"/>
<path d="M476.0,1139.5 C371.0,1139.5 371.0,1085.0 266.0,1085.0" fill="none" stroke="#ff6aa8" stroke-width="2.0" stroke-linecap="round" stroke-opacity="0.88"/>
<path d="M476.0,1139.5 C371.0,1139.5 371.0,1194.0 266.0,1194.0" fill="none" stroke="#ff6aa8" stroke-width="2.0" stroke-linecap="round" stroke-opacity="0.88"/>
<path d="M476.0,1139.5 C371.0,1139.5 371.0,1303.0 266.0,1303.0" fill="none" stroke="#ff6aa8" stroke-width="2.0" stroke-linecap="round" stroke-opacity="0.88"/>
<path d="M902.0,1357.5 C782.0,1357.5 782.0,1575.5 662.0,1575.5" fill="none" stroke="#ff6aa8" stroke-width="2.0" stroke-linecap="round" stroke-opacity="0.88"/>
<path d="M476.0,1575.5 C371.0,1575.5 371.0,1412.0 266.0,1412.0" fill="none" stroke="#ff6aa8" stroke-width="2.0" stroke-linecap="round" stroke-opacity="0.88"/>
<path d="M476.0,1575.5 C371.0,1575.5 371.0,1521.0 266.0,1521.0" fill="none" stroke="#ff6aa8" stroke-width="2.0" stroke-linecap="round" stroke-opacity="0.88"/>
<path d="M476.0,1575.5 C371.0,1575.5 371.0,1630.0 266.0,1630.0" fill="none" stroke="#ff6aa8" stroke-width="2.0" stroke-linecap="round" stroke-opacity="0.88"/>
<path d="M476.0,1575.5 C371.0,1575.5 371.0,1739.0 266.0,1739.0" fill="none" stroke="#ff6aa8" stroke-width="2.0" stroke-linecap="round" stroke-opacity="0.88"/>
<path d="M1598.0,1734.0 C1738.0,1734.0 1738.0,812.0 1878.0,812.0" fill="none" stroke="#ff3c93" stroke-width="2.6" stroke-linecap="round" stroke-opacity="0.88"/>
<path d="M2074.0,812.0 C2194.0,812.0 2194.0,594.0 2314.0,594.0" fill="none" stroke="#ffb870" stroke-width="2.0" stroke-linecap="round" stroke-opacity="0.88"/>
<path d="M2500.0,594.0 C2605.0,594.0 2605.0,438.0 2710.0,438.0" fill="none" stroke="#ffb870" stroke-width="2.0" stroke-linecap="round" stroke-opacity="0.88"/>
<path d="M2500.0,594.0 C2605.0,594.0 2605.0,532.0 2710.0,532.0" fill="none" stroke="#ffb870" stroke-width="2.0" stroke-linecap="round" stroke-opacity="0.88"/>
<path d="M2500.0,594.0 C2605.0,594.0 2605.0,633.5 2710.0,633.5" fill="none" stroke="#ffb870" stroke-width="2.0" stroke-linecap="round" stroke-opacity="0.88"/>
<path d="M2500.0,594.0 C2605.0,594.0 2605.0,742.5 2710.0,742.5" fill="none" stroke="#ffb870" stroke-width="2.0" stroke-linecap="round" stroke-opacity="0.88"/>
<path d="M2074.0,812.0 C2194.0,812.0 2194.0,1015.0 2314.0,1015.0" fill="none" stroke="#ffb870" stroke-width="2.0" stroke-linecap="round" stroke-opacity="0.88"/>
<path d="M2500.0,1015.0 C2605.0,1015.0 2605.0,851.5 2710.0,851.5" fill="none" stroke="#ffb870" stroke-width="2.0" stroke-linecap="round" stroke-opacity="0.88"/>
<path d="M2500.0,1015.0 C2605.0,1015.0 2605.0,960.5 2710.0,960.5" fill="none" stroke="#ffb870" stroke-width="2.0" stroke-linecap="round" stroke-opacity="0.88"/>
<path d="M2500.0,1015.0 C2605.0,1015.0 2605.0,1069.5 2710.0,1069.5" fill="none" stroke="#ffb870" stroke-width="2.0" stroke-linecap="round" stroke-opacity="0.88"/>
<path d="M2500.0,1015.0 C2605.0,1015.0 2605.0,1178.5 2710.0,1178.5" fill="none" stroke="#ffb870" stroke-width="2.0" stroke-linecap="round" stroke-opacity="0.88"/>
<path d="M1378.0,1734.0 C1238.0,1734.0 1238.0,2146.0 1098.0,2146.0" fill="none" stroke="#ff3c93" stroke-width="2.6" stroke-linecap="round" stroke-opacity="0.88"/>
<path d="M902.0,2146.0 C782.0,2146.0 782.0,1856.5 662.0,1856.5" fill="none" stroke="#9b8cff" stroke-width="2.0" stroke-linecap="round" stroke-opacity="0.88"/>
<path d="M902.0,2146.0 C782.0,2146.0 782.0,1982.5 662.0,1982.5" fill="none" stroke="#9b8cff" stroke-width="2.0" stroke-linecap="round" stroke-opacity="0.88"/>
<path d="M902.0,2146.0 C782.0,2146.0 782.0,2108.5 662.0,2108.5" fill="none" stroke="#9b8cff" stroke-width="2.0" stroke-linecap="round" stroke-opacity="0.88"/>
<path d="M902.0,2146.0 C782.0,2146.0 782.0,2226.0 662.0,2226.0" fill="none" stroke="#9b8cff" stroke-width="2.0" stroke-linecap="round" stroke-opacity="0.88"/>
<path d="M902.0,2146.0 C782.0,2146.0 782.0,2335.0 662.0,2335.0" fill="none" stroke="#9b8cff" stroke-width="2.0" stroke-linecap="round" stroke-opacity="0.88"/>
<path d="M902.0,2146.0 C782.0,2146.0 782.0,2444.0 662.0,2444.0" fill="none" stroke="#9b8cff" stroke-width="2.0" stroke-linecap="round" stroke-opacity="0.88"/>
<path d="M1598.0,1734.0 C1738.0,1734.0 1738.0,1498.5 1878.0,1498.5" fill="none" stroke="#ff3c93" stroke-width="2.6" stroke-linecap="round" stroke-opacity="0.88"/>
<path d="M2074.0,1498.5 C2194.0,1498.5 2194.0,1287.5 2314.0,1287.5" fill="none" stroke="#75f5c7" stroke-width="2.0" stroke-linecap="round" stroke-opacity="0.88"/>
<path d="M2074.0,1498.5 C2194.0,1498.5 2194.0,1389.0 2314.0,1389.0" fill="none" stroke="#75f5c7" stroke-width="2.0" stroke-linecap="round" stroke-opacity="0.88"/>
<path d="M2074.0,1498.5 C2194.0,1498.5 2194.0,1490.5 2314.0,1490.5" fill="none" stroke="#75f5c7" stroke-width="2.0" stroke-linecap="round" stroke-opacity="0.88"/>
<path d="M2074.0,1498.5 C2194.0,1498.5 2194.0,1607.5 2314.0,1607.5" fill="none" stroke="#75f5c7" stroke-width="2.0" stroke-linecap="round" stroke-opacity="0.88"/>
<path d="M2074.0,1498.5 C2194.0,1498.5 2194.0,1717.0 2314.0,1717.0" fill="none" stroke="#75f5c7" stroke-width="2.0" stroke-linecap="round" stroke-opacity="0.88"/>
<path d="M1378.0,1734.0 C1238.0,1734.0 1238.0,2694.0 1098.0,2694.0" fill="none" stroke="#ff3c93" stroke-width="2.6" stroke-linecap="round" stroke-opacity="0.88"/>
<path d="M902.0,2694.0 C782.0,2694.0 782.0,2545.5 662.0,2545.5" fill="none" stroke="#4ef0a5" stroke-width="2.0" stroke-linecap="round" stroke-opacity="0.88"/>
<path d="M902.0,2694.0 C782.0,2694.0 782.0,2647.0 662.0,2647.0" fill="none" stroke="#4ef0a5" stroke-width="2.0" stroke-linecap="round" stroke-opacity="0.88"/>
<path d="M902.0,2694.0 C782.0,2694.0 782.0,2748.5 662.0,2748.5" fill="none" stroke="#4ef0a5" stroke-width="2.0" stroke-linecap="round" stroke-opacity="0.88"/>
<path d="M902.0,2694.0 C782.0,2694.0 782.0,2842.5 662.0,2842.5" fill="none" stroke="#4ef0a5" stroke-width="2.0" stroke-linecap="round" stroke-opacity="0.88"/>
<path d="M1598.0,1734.0 C1738.0,1734.0 1738.0,2319.5 1878.0,2319.5" fill="none" stroke="#ff3c93" stroke-width="2.6" stroke-linecap="round" stroke-opacity="0.88"/>
<path d="M2074.0,2319.5 C2194.0,2319.5 2194.0,1959.5 2314.0,1959.5" fill="none" stroke="#31d7ff" stroke-width="2.0" stroke-linecap="round" stroke-opacity="0.88"/>
<path d="M2500.0,1959.5 C2605.0,1959.5 2605.0,1811.0 2710.0,1811.0" fill="none" stroke="#31d7ff" stroke-width="2.0" stroke-linecap="round" stroke-opacity="0.88"/>
<path d="M2500.0,1959.5 C2605.0,1959.5 2605.0,1905.0 2710.0,1905.0" fill="none" stroke="#31d7ff" stroke-width="2.0" stroke-linecap="round" stroke-opacity="0.88"/>
<path d="M2500.0,1959.5 C2605.0,1959.5 2605.0,1999.0 2710.0,1999.0" fill="none" stroke="#31d7ff" stroke-width="2.0" stroke-linecap="round" stroke-opacity="0.88"/>
<path d="M2500.0,1959.5 C2605.0,1959.5 2605.0,2100.5 2710.0,2100.5" fill="none" stroke="#31d7ff" stroke-width="2.0" stroke-linecap="round" stroke-opacity="0.88"/>
<path d="M2074.0,2319.5 C2194.0,2319.5 2194.0,2350.5 2314.0,2350.5" fill="none" stroke="#31d7ff" stroke-width="2.0" stroke-linecap="round" stroke-opacity="0.88"/>
<path d="M2500.0,2350.5 C2605.0,2350.5 2605.0,2209.5 2710.0,2209.5" fill="none" stroke="#31d7ff" stroke-width="2.0" stroke-linecap="round" stroke-opacity="0.88"/>
<path d="M2500.0,2350.5 C2605.0,2350.5 2605.0,2311.0 2710.0,2311.0" fill="none" stroke="#31d7ff" stroke-width="2.0" stroke-linecap="round" stroke-opacity="0.88"/>
<path d="M2500.0,2350.5 C2605.0,2350.5 2605.0,2405.0 2710.0,2405.0" fill="none" stroke="#31d7ff" stroke-width="2.0" stroke-linecap="round" stroke-opacity="0.88"/>
<path d="M2500.0,2350.5 C2605.0,2350.5 2605.0,2499.0 2710.0,2499.0" fill="none" stroke="#31d7ff" stroke-width="2.0" stroke-linecap="round" stroke-opacity="0.88"/>
<path d="M2074.0,2319.5 C2194.0,2319.5 2194.0,2710.5 2314.0,2710.5" fill="none" stroke="#31d7ff" stroke-width="2.0" stroke-linecap="round" stroke-opacity="0.88"/>
<path d="M2500.0,2710.5 C2605.0,2710.5 2605.0,2601.0 2710.0,2601.0" fill="none" stroke="#31d7ff" stroke-width="2.0" stroke-linecap="round" stroke-opacity="0.88"/>
<path d="M2500.0,2710.5 C2605.0,2710.5 2605.0,2711.0 2710.0,2711.0" fill="none" stroke="#31d7ff" stroke-width="2.0" stroke-linecap="round" stroke-opacity="0.88"/>
<path d="M2500.0,2710.5 C2605.0,2710.5 2605.0,2820.5 2710.0,2820.5" fill="none" stroke="#31d7ff" stroke-width="2.0" stroke-linecap="round" stroke-opacity="0.88"/>
<path d="M1378.0,1734.0 C1238.0,1734.0 1238.0,3107.5 1098.0,3107.5" fill="none" stroke="#ff3c93" stroke-width="2.6" stroke-linecap="round" stroke-opacity="0.88"/>
<path d="M902.0,3107.5 C782.0,3107.5 782.0,2944.0 662.0,2944.0" fill="none" stroke="#ff6aa8" stroke-width="2.0" stroke-linecap="round" stroke-opacity="0.88"/>
<path d="M902.0,3107.5 C782.0,3107.5 782.0,3053.0 662.0,3053.0" fill="none" stroke="#ff6aa8" stroke-width="2.0" stroke-linecap="round" stroke-opacity="0.88"/>
<path d="M902.0,3107.5 C782.0,3107.5 782.0,3162.0 662.0,3162.0" fill="none" stroke="#ff6aa8" stroke-width="2.0" stroke-linecap="round" stroke-opacity="0.88"/>
<path d="M902.0,3107.5 C782.0,3107.5 782.0,3271.0 662.0,3271.0" fill="none" stroke="#ff6aa8" stroke-width="2.0" stroke-linecap="round" stroke-opacity="0.88"/>
<path d="M1598.0,1734.0 C1738.0,1734.0 1738.0,3140.0 1878.0,3140.0" fill="none" stroke="#ff3c93" stroke-width="2.6" stroke-linecap="round" stroke-opacity="0.88"/>
<path d="M2074.0,3140.0 C2194.0,3140.0 2194.0,3031.0 2314.0,3031.0" fill="none" stroke="#ffb870" stroke-width="2.0" stroke-linecap="round" stroke-opacity="0.88"/>
<path d="M2500.0,3031.0 C2605.0,3031.0 2605.0,2929.5 2710.0,2929.5" fill="none" stroke="#ffb870" stroke-width="2.0" stroke-linecap="round" stroke-opacity="0.88"/>
<path d="M2500.0,3031.0 C2605.0,3031.0 2605.0,3031.0 2710.0,3031.0" fill="none" stroke="#ffb870" stroke-width="2.0" stroke-linecap="round" stroke-opacity="0.88"/>
<path d="M2500.0,3031.0 C2605.0,3031.0 2605.0,3132.5 2710.0,3132.5" fill="none" stroke="#ffb870" stroke-width="2.0" stroke-linecap="round" stroke-opacity="0.88"/>
<path d="M2074.0,3140.0 C2194.0,3140.0 2194.0,3241.5 2314.0,3241.5" fill="none" stroke="#ffb870" stroke-width="2.0" stroke-linecap="round" stroke-opacity="0.88"/>
<path d="M2074.0,3140.0 C2194.0,3140.0 2194.0,3350.5 2314.0,3350.5" fill="none" stroke="#ffb870" stroke-width="2.0" stroke-linecap="round" stroke-opacity="0.88"/>
<rect x="1378" y="1690" width="220" height="88" rx="18" fill="#ffe3ef" stroke="#ff3c93" stroke-width="1.6"/>
<text x="1488.0" y="1723.0" text-anchor="middle" class="root">Psiquiatria</text>
<text x="1488.0" y="1737.0" text-anchor="middle" class="body">Exame do estado mental e</text>
<text x="1488.0" y="1751.0" text-anchor="middle" class="body">psicoses</text>
<rect x="902" y="502" width="196" height="60" rx="12" fill="#fff4ed" stroke="#4ef0a5" stroke-width="1.6"/>
<text x="1000.0" y="528.0" text-anchor="middle" class="title">Consci?ncia</text>
<text x="1000.0" y="542.0" text-anchor="middle" class="body">eixo central do sens?rio</text>
<rect x="476" y="276.5" width="186" height="75" rx="12" fill="rgba(255,255,255,1)" stroke="#4ef0a5" stroke-width="1.6"/>
<text x="569.0" y="296.0" text-anchor="middle" class="title">Altera??es</text>
<text x="569.0" y="310.0" text-anchor="middle" class="title">quantitativas</text>
<text x="569.0" y="324.0" text-anchor="middle" class="body">queda do volume da</text>
<text x="569.0" y="338.0" text-anchor="middle" class="body">consci?ncia</text>
<rect x="80" y="159.5" width="186" height="75" rx="12" fill="rgba(255,255,255,1)" stroke="#4ef0a5" stroke-width="1.6"/>
<text x="173.0" y="186.0" text-anchor="middle" class="title">Estupor</text>
<text x="173.0" y="200.0" text-anchor="middle" class="body">responde apenas a</text>
<text x="173.0" y="214.0" text-anchor="middle" class="body">est?mulos intensos e</text>
<rect x="80" y="268.5" width="186" height="91" rx="12" fill="rgba(255,255,255,1)" stroke="#4ef0a5" stroke-width="1.6"/>
<text x="173.0" y="303.0" text-anchor="middle" class="title">Coma</text>
<text x="173.0" y="317.0" text-anchor="middle" class="body">inconsci?ncia total, sem</text>
<text x="173.0" y="331.0" text-anchor="middle" class="body">motricidade volunt?ria,</text>
<rect x="80" y="393.5" width="186" height="75" rx="12" fill="rgba(255,255,255,1)" stroke="#4ef0a5" stroke-width="1.6"/>
<text x="173.0" y="420.0" text-anchor="middle" class="title">Morte cerebral</text>
<text x="173.0" y="434.0" text-anchor="middle" class="body">cessa??o irrevers?vel de</text>
<text x="173.0" y="448.0" text-anchor="middle" class="body">toda atividade encef?lica</text>
<rect x="476" y="611.5" width="186" height="75" rx="12" fill="rgba(255,255,255,1)" stroke="#4ef0a5" stroke-width="1.6"/>
<text x="569.0" y="631.0" text-anchor="middle" class="title">Altera??es</text>
<text x="569.0" y="645.0" text-anchor="middle" class="title">qualitativas</text>
<text x="569.0" y="659.0" text-anchor="middle" class="body">alerta presente, mas</text>
<text x="569.0" y="673.0" text-anchor="middle" class="body">conte?do distorcido</text>
<rect x="80" y="502.5" width="186" height="75" rx="12" fill="rgba(255,255,255,1)" stroke="#4ef0a5" stroke-width="1.6"/>
<text x="173.0" y="529.0" text-anchor="middle" class="title">Hipervig?lia</text>
<text x="173.0" y="543.0" text-anchor="middle" class="body">overdrive com aumento</text>
<text x="173.0" y="557.0" text-anchor="middle" class="body">motor e verbal</text>
<rect x="80" y="611.5" width="186" height="75" rx="12" fill="rgba(255,255,255,1)" stroke="#4ef0a5" stroke-width="1.6"/>
<text x="173.0" y="638.0" text-anchor="middle" class="title">Letargia / sopor</text>
<text x="173.0" y="652.0" text-anchor="middle" class="body">vig?lia oscilante e</text>
<text x="173.0" y="666.0" text-anchor="middle" class="body">resposta flutuante</text>
<rect x="80" y="720.5" width="186" height="75" rx="12" fill="rgba(255,255,255,1)" stroke="#4ef0a5" stroke-width="1.6"/>
<text x="173.0" y="747.0" text-anchor="middle" class="title">Obnubila??o</text>
<text x="173.0" y="761.0" text-anchor="middle" class="body">confus?o, desorienta??o e</text>
<text x="173.0" y="775.0" text-anchor="middle" class="body">distraibilidade</text>
<rect x="476" y="829.5" width="186" height="75" rx="12" fill="rgba(255,255,255,1)" stroke="#4ef0a5" stroke-width="1.6"/>
<text x="569.0" y="856.0" text-anchor="middle" class="title">S?ntese final</text>
<text x="569.0" y="870.0" text-anchor="middle" class="body">quantitativo = quanto,</text>
<text x="569.0" y="884.0" text-anchor="middle" class="body">qualitativo = como</text>
<rect x="1878" y="197" width="196" height="60" rx="12" fill="#fff4ed" stroke="#31d7ff" stroke-width="1.6"/>
<text x="1976.0" y="223.0" text-anchor="middle" class="title">Aten??o</text>
<text x="1976.0" y="237.0" text-anchor="middle" class="body">grau de foco e vigil?ncia</text>
<rect x="2314" y="80" width="186" height="91" rx="12" fill="rgba(255,255,255,1)" stroke="#31d7ff" stroke-width="1.6"/>
<text x="2407.0" y="114.5" text-anchor="middle" class="title">Hipoprosexia</text>
<text x="2407.0" y="128.5" text-anchor="middle" class="body">redu??o da aten??o por</text>
<text x="2407.0" y="142.5" text-anchor="middle" class="body">fadiga, apatia ou</text>
<rect x="2314" y="205" width="186" height="75" rx="12" fill="rgba(255,255,255,1)" stroke="#31d7ff" stroke-width="1.6"/>
<text x="2407.0" y="231.5" text-anchor="middle" class="title">Hiperprosexia</text>
<text x="2407.0" y="245.5" text-anchor="middle" class="body">aumento com instabilidade</text>
<text x="2407.0" y="259.5" text-anchor="middle" class="body">atencional</text>
<rect x="2314" y="314" width="186" height="60" rx="12" fill="rgba(255,255,255,1)" stroke="#31d7ff" stroke-width="1.6"/>
<text x="2407.0" y="340.0" text-anchor="middle" class="title">Aprosexia</text>
<text x="2407.0" y="354.0" text-anchor="middle" class="body">aboli??o total da aten??o</text>
<rect x="902" y="1320" width="196" height="75" rx="12" fill="#fff4ed" stroke="#ff6aa8" stroke-width="1.6"/>
<text x="1000.0" y="1346.5" text-anchor="middle" class="title">Mem?ria</text>
<text x="1000.0" y="1360.5" text-anchor="middle" class="body">armazenar e recuperar</text>
<text x="1000.0" y="1374.5" text-anchor="middle" class="body">informa??o</text>
<rect x="476" y="1109.5" width="186" height="60" rx="12" fill="rgba(255,255,255,1)" stroke="#ff6aa8" stroke-width="1.6"/>
<text x="569.0" y="1128.5" text-anchor="middle" class="title">Transtornos da mem?ria</text>
<text x="569.0" y="1142.5" text-anchor="middle" class="body">altera??es cl?nicas</text>
<text x="569.0" y="1156.5" text-anchor="middle" class="body">principais</text>
<rect x="80" y="938.5" width="186" height="75" rx="12" fill="rgba(255,255,255,1)" stroke="#ff6aa8" stroke-width="1.6"/>
<text x="173.0" y="965.0" text-anchor="middle" class="title">Hipermnesia</text>
<text x="173.0" y="979.0" text-anchor="middle" class="body">recorda??o facilitada de</text>
<text x="173.0" y="993.0" text-anchor="middle" class="body">fatos passados</text>
<rect x="80" y="1047.5" width="186" height="75" rx="12" fill="rgba(255,255,255,1)" stroke="#ff6aa8" stroke-width="1.6"/>
<text x="173.0" y="1074.0" text-anchor="middle" class="title">Paramnesia</text>
<text x="173.0" y="1088.0" text-anchor="middle" class="body">falsos reconhecimentos e</text>
<text x="173.0" y="1102.0" text-anchor="middle" class="body">lembran?as irreais</text>
<rect x="80" y="1156.5" width="186" height="75" rx="12" fill="rgba(255,255,255,1)" stroke="#ff6aa8" stroke-width="1.6"/>
<text x="173.0" y="1183.0" text-anchor="middle" class="title">S?ndrome amn?sica pura</text>
<text x="173.0" y="1197.0" text-anchor="middle" class="body">amn?sia anter?grada grave</text>
<text x="173.0" y="1211.0" text-anchor="middle" class="body">com curto prazo preservado</text>
<rect x="80" y="1265.5" width="186" height="75" rx="12" fill="rgba(255,255,255,1)" stroke="#ff6aa8" stroke-width="1.6"/>
<text x="173.0" y="1292.0" text-anchor="middle" class="title">Amn?sia lacunar</text>
<text x="173.0" y="1306.0" text-anchor="middle" class="body">perda restrita a um</text>
<text x="173.0" y="1320.0" text-anchor="middle" class="body">per?odo espec?fico</text>
<rect x="476" y="1545.5" width="186" height="60" rx="12" fill="rgba(255,255,255,1)" stroke="#ff6aa8" stroke-width="1.6"/>
<text x="569.0" y="1571.5" text-anchor="middle" class="title">Classifica??o</text>
<text x="569.0" y="1585.5" text-anchor="middle" class="body">por dura??o e por conte?do</text>
<rect x="80" y="1374.5" width="186" height="75" rx="12" fill="rgba(255,255,255,1)" stroke="#ff6aa8" stroke-width="1.6"/>
<text x="173.0" y="1401.0" text-anchor="middle" class="title">Curto prazo</text>
<text x="173.0" y="1415.0" text-anchor="middle" class="body">5 a 20 segundos e 5 a 7</text>
<text x="173.0" y="1429.0" text-anchor="middle" class="body">elementos</text>
<rect x="80" y="1483.5" width="186" height="75" rx="12" fill="rgba(255,255,255,1)" stroke="#ff6aa8" stroke-width="1.6"/>
<text x="173.0" y="1510.0" text-anchor="middle" class="title">Longo prazo</text>
<text x="173.0" y="1524.0" text-anchor="middle" class="body">armazenamento prolongado e</text>
<text x="173.0" y="1538.0" text-anchor="middle" class="body">amplo</text>
<rect x="80" y="1592.5" width="186" height="75" rx="12" fill="rgba(255,255,255,1)" stroke="#ff6aa8" stroke-width="1.6"/>
<text x="173.0" y="1619.0" text-anchor="middle" class="title">Procedimental</text>
<text x="173.0" y="1633.0" text-anchor="middle" class="body">habilidades impl?citas e</text>
<text x="173.0" y="1647.0" text-anchor="middle" class="body">autom?ticas</text>
<rect x="80" y="1701.5" width="186" height="75" rx="12" fill="rgba(255,255,255,1)" stroke="#ff6aa8" stroke-width="1.6"/>
<text x="173.0" y="1728.0" text-anchor="middle" class="title">Declarativa</text>
<text x="173.0" y="1742.0" text-anchor="middle" class="body">mem?ria epis?dica e</text>
<text x="173.0" y="1756.0" text-anchor="middle" class="body">sem?ntica</text>
<rect x="1878" y="774" width="196" height="76" rx="12" fill="#fff4ed" stroke="#ffb870" stroke-width="1.6"/>
<text x="1976.0" y="794.0" text-anchor="middle" class="title">Abordabilidade e</text>
<text x="1976.0" y="808.0" text-anchor="middle" class="title">autorrepresenta??o</text>
<text x="1976.0" y="822.0" text-anchor="middle" class="body">rela??o cl?nica e</text>
<text x="1976.0" y="836.0" text-anchor="middle" class="body">identidade</text>
<rect x="2314" y="556.5" width="186" height="75" rx="12" fill="rgba(255,255,255,1)" stroke="#ffb870" stroke-width="1.6"/>
<text x="2407.0" y="583.0" text-anchor="middle" class="title">Abordabilidade</text>
<text x="2407.0" y="597.0" text-anchor="middle" class="body">como o paciente entra em</text>
<text x="2407.0" y="611.0" text-anchor="middle" class="body">contato na entrevista</text>
<rect x="2710" y="408" width="186" height="60" rx="12" fill="rgba(255,255,255,1)" stroke="#ffb870" stroke-width="1.6"/>
<text x="2803.0" y="427.0" text-anchor="middle" class="title">Colaborador /</text>
<text x="2803.0" y="441.0" text-anchor="middle" class="title">abord?vel</text>
<text x="2803.0" y="455.0" text-anchor="middle" class="body">coopera com a entrevista</text>
<rect x="2710" y="502" width="186" height="60" rx="12" fill="rgba(255,255,255,1)" stroke="#ffb870" stroke-width="1.6"/>
<text x="2803.0" y="528.0" text-anchor="middle" class="title">N?o colaborador ativo</text>
<text x="2803.0" y="542.0" text-anchor="middle" class="body">recusa expl?cita</text>
<rect x="2710" y="596" width="186" height="75" rx="12" fill="rgba(255,255,255,1)" stroke="#ffb870" stroke-width="1.6"/>
<text x="2803.0" y="615.5" text-anchor="middle" class="title">N?o colaborador</text>
<text x="2803.0" y="629.5" text-anchor="middle" class="title">passivo</text>
<text x="2803.0" y="643.5" text-anchor="middle" class="body">consci?ncia alterada</text>
<text x="2803.0" y="657.5" text-anchor="middle" class="body">impede express?o</text>
<rect x="2710" y="705" width="186" height="75" rx="12" fill="rgba(255,255,255,1)" stroke="#ffb870" stroke-width="1.6"/>
<text x="2803.0" y="731.5" text-anchor="middle" class="title">Contato visual</text>
<text x="2803.0" y="745.5" text-anchor="middle" class="body">presen?a ou aus?ncia tem</text>
<text x="2803.0" y="759.5" text-anchor="middle" class="body">valor cl?nico</text>
<rect x="2314" y="968.5" width="186" height="93" rx="12" fill="rgba(255,255,255,1)" stroke="#ffb870" stroke-width="1.6"/>
<text x="2407.0" y="990.0" text-anchor="middle" class="title">S?ndromes de</text>
<text x="2407.0" y="1004.0" text-anchor="middle" class="title">autorrepresenta??o</text>
<text x="2407.0" y="1018.0" text-anchor="middle" class="title">externa</text>
<text x="2407.0" y="1032.0" text-anchor="middle" class="body">distor??es do</text>
<text x="2407.0" y="1046.0" text-anchor="middle" class="body">reconhecimento</text>
<rect x="2710" y="814" width="186" height="75" rx="12" fill="rgba(255,255,255,1)" stroke="#ffb870" stroke-width="1.6"/>
<text x="2803.0" y="840.5" text-anchor="middle" class="title">Capgras</text>
<text x="2803.0" y="854.5" text-anchor="middle" class="body">familiar percebido como</text>
<text x="2803.0" y="868.5" text-anchor="middle" class="body">impostor</text>
<rect x="2710" y="923" width="186" height="75" rx="12" fill="rgba(255,255,255,1)" stroke="#ffb870" stroke-width="1.6"/>
<text x="2803.0" y="949.5" text-anchor="middle" class="title">Fregoli</text>
<text x="2803.0" y="963.5" text-anchor="middle" class="body">estranho percebido como</text>
<text x="2803.0" y="977.5" text-anchor="middle" class="body">algu?m conhecido</text>
<rect x="2710" y="1032" width="186" height="75" rx="12" fill="rgba(255,255,255,1)" stroke="#ffb870" stroke-width="1.6"/>
<text x="2803.0" y="1058.5" text-anchor="middle" class="title">Cotard</text>
<text x="2803.0" y="1072.5" text-anchor="middle" class="body">nega??o do corpo, da</text>
<text x="2803.0" y="1086.5" text-anchor="middle" class="body">exist?ncia ou do mundo</text>
<rect x="2710" y="1141" width="186" height="75" rx="12" fill="rgba(255,255,255,1)" stroke="#ffb870" stroke-width="1.6"/>
<text x="2803.0" y="1167.5" text-anchor="middle" class="title">De Cl?rambault</text>
<text x="2803.0" y="1181.5" text-anchor="middle" class="body">erotomania com figura de</text>
<text x="2803.0" y="1195.5" text-anchor="middle" class="body">status superior</text>
<rect x="902" y="2108.5" width="196" height="75" rx="12" fill="#fff4ed" stroke="#9b8cff" stroke-width="1.6"/>
<text x="1000.0" y="2135.0" text-anchor="middle" class="title">Psicomotricidade</text>
<text x="1000.0" y="2149.0" text-anchor="middle" class="body">postura, express?o e</text>
<text x="1000.0" y="2163.0" text-anchor="middle" class="body">movimento</text>
<rect x="476" y="1810.5" width="186" height="92" rx="12" fill="rgba(255,255,255,1)" stroke="#9b8cff" stroke-width="1.6"/>
<text x="569.0" y="1838.5" text-anchor="middle" class="title">Catalepsia /</text>
<text x="569.0" y="1852.5" text-anchor="middle" class="title">flexibilidade c?rea</text>
<text x="569.0" y="1866.5" text-anchor="middle" class="body">postura r?gida mantida e</text>
<text x="569.0" y="1880.5" text-anchor="middle" class="body">resist?ncia passiva</text>
<rect x="476" y="1936.5" width="186" height="92" rx="12" fill="rgba(255,255,255,1)" stroke="#9b8cff" stroke-width="1.6"/>
<text x="569.0" y="1964.5" text-anchor="middle" class="title">Negativismo /</text>
<text x="569.0" y="1978.5" text-anchor="middle" class="title">obedi?ncia autom?tica</text>
<text x="569.0" y="1992.5" text-anchor="middle" class="body">oposi??o ou repeti??o</text>
<text x="569.0" y="2006.5" text-anchor="middle" class="body">autom?tica</text>
<rect x="476" y="2062.5" width="186" height="92" rx="12" fill="rgba(255,255,255,1)" stroke="#9b8cff" stroke-width="1.6"/>
<text x="569.0" y="2090.5" text-anchor="middle" class="title">Estereotipias e</text>
<text x="569.0" y="2104.5" text-anchor="middle" class="title">manierismos</text>
<text x="569.0" y="2118.5" text-anchor="middle" class="body">gestos repetitivos ou</text>
<text x="569.0" y="2132.5" text-anchor="middle" class="body">parasitas</text>
<rect x="476" y="2188.5" width="186" height="75" rx="12" fill="rgba(255,255,255,1)" stroke="#9b8cff" stroke-width="1.6"/>
<text x="569.0" y="2215.0" text-anchor="middle" class="title">Apraxia</text>
<text x="569.0" y="2229.0" text-anchor="middle" class="body">falha em sequenciar e</text>
<text x="569.0" y="2243.0" text-anchor="middle" class="body">coordenar atos</text>
<rect x="476" y="2297.5" width="186" height="75" rx="12" fill="rgba(255,255,255,1)" stroke="#9b8cff" stroke-width="1.6"/>
<text x="569.0" y="2324.0" text-anchor="middle" class="title">Tremores</text>
<text x="569.0" y="2338.0" text-anchor="middle" class="body">repouso, postural e</text>
<text x="569.0" y="2352.0" text-anchor="middle" class="body">intencional</text>
<rect x="476" y="2406.5" width="186" height="75" rx="12" fill="rgba(255,255,255,1)" stroke="#9b8cff" stroke-width="1.6"/>
<text x="569.0" y="2433.0" text-anchor="middle" class="title">Tiques</text>
<text x="569.0" y="2447.0" text-anchor="middle" class="body">movimentos r?pidos,</text>
<text x="569.0" y="2461.0" text-anchor="middle" class="body">involunt?rios e</text>
<rect x="1878" y="1468.5" width="196" height="60" rx="12" fill="#fff4ed" stroke="#75f5c7" stroke-width="1.6"/>
<text x="1976.0" y="1494.5" text-anchor="middle" class="title">Linguagem</text>
<text x="1976.0" y="1508.5" text-anchor="middle" class="body">ritmo, repeti??o e sentido</text>
<rect x="2314" y="1250" width="186" height="75" rx="12" fill="rgba(255,255,255,1)" stroke="#75f5c7" stroke-width="1.6"/>
<text x="2407.0" y="1276.5" text-anchor="middle" class="title">Ritmo</text>
<text x="2407.0" y="1290.5" text-anchor="middle" class="body">bradifasia, taquifasia,</text>
<text x="2407.0" y="1304.5" text-anchor="middle" class="body">lat?ncia e gagueira</text>
<rect x="2314" y="1359" width="186" height="60" rx="12" fill="rgba(255,255,255,1)" stroke="#75f5c7" stroke-width="1.6"/>
<text x="2407.0" y="1378.0" text-anchor="middle" class="title">Iterativos</text>
<text x="2407.0" y="1392.0" text-anchor="middle" class="body">palilalia, ecolalia e</text>
<text x="2407.0" y="1406.0" text-anchor="middle" class="body">coprolalia</text>
<rect x="2314" y="1453" width="186" height="75" rx="12" fill="rgba(255,255,255,1)" stroke="#75f5c7" stroke-width="1.6"/>
<text x="2407.0" y="1479.5" text-anchor="middle" class="title">Significa??o</text>
<text x="2407.0" y="1493.5" text-anchor="middle" class="body">neologismos e condensa??es</text>
<text x="2407.0" y="1507.5" text-anchor="middle" class="body">pr?prias</text>
<rect x="2314" y="1562" width="186" height="91" rx="12" fill="rgba(255,255,255,1)" stroke="#75f5c7" stroke-width="1.6"/>
<text x="2407.0" y="1596.5" text-anchor="middle" class="title">Afasias</text>
<text x="2407.0" y="1610.5" text-anchor="middle" class="body">incapacidade de</text>
<text x="2407.0" y="1624.5" text-anchor="middle" class="body">compreender ou usar a</text>
<rect x="2314" y="1687" width="186" height="60" rx="12" fill="rgba(255,255,255,1)" stroke="#75f5c7" stroke-width="1.6"/>
<text x="2407.0" y="1706.0" text-anchor="middle" class="title">Outros sinais</text>
<text x="2407.0" y="1720.0" text-anchor="middle" class="body">logorreia, solil?quio e</text>
<text x="2407.0" y="1734.0" text-anchor="middle" class="body">mutismo</text>
<rect x="902" y="2664" width="196" height="60" rx="12" fill="#fff4ed" stroke="#4ef0a5" stroke-width="1.6"/>
<text x="1000.0" y="2690.0" text-anchor="middle" class="title">Afetividade</text>
<text x="1000.0" y="2704.0" text-anchor="middle" class="body">tonalidade do humor</text>
<rect x="476" y="2515.5" width="186" height="60" rx="12" fill="rgba(255,255,255,1)" stroke="#4ef0a5" stroke-width="1.6"/>
<text x="569.0" y="2541.5" text-anchor="middle" class="title">Eut?mico</text>
<text x="569.0" y="2555.5" text-anchor="middle" class="body">humor dentro do habitual</text>
<rect x="476" y="2609.5" width="186" height="75" rx="12" fill="rgba(255,255,255,1)" stroke="#4ef0a5" stroke-width="1.6"/>
<text x="569.0" y="2636.0" text-anchor="middle" class="title">Deprimido</text>
<text x="569.0" y="2650.0" text-anchor="middle" class="body">tristeza e rebaixamento do</text>
<text x="569.0" y="2664.0" text-anchor="middle" class="body">?nimo</text>
<rect x="476" y="2718.5" width="186" height="60" rx="12" fill="rgba(255,255,255,1)" stroke="#4ef0a5" stroke-width="1.6"/>
<text x="569.0" y="2737.5" text-anchor="middle" class="title">Disf?rico / irrit?vel</text>
<text x="569.0" y="2751.5" text-anchor="middle" class="body">mal-estar e baixa</text>
<text x="569.0" y="2765.5" text-anchor="middle" class="body">toler?ncia</text>
<rect x="476" y="2812.5" width="186" height="60" rx="12" fill="rgba(255,255,255,1)" stroke="#4ef0a5" stroke-width="1.6"/>
<text x="569.0" y="2838.5" text-anchor="middle" class="title">Elevado / expansivo</text>
<text x="569.0" y="2852.5" text-anchor="middle" class="body">euforia e desinibi??o</text>
<rect x="1878" y="2289.5" width="196" height="60" rx="12" fill="#fff4ed" stroke="#31d7ff" stroke-width="1.6"/>
<text x="1976.0" y="2315.5" text-anchor="middle" class="title">Pensamento</text>
<text x="1976.0" y="2329.5" text-anchor="middle" class="body">curso, forma e conte?do</text>
<rect x="2314" y="1929.5" width="186" height="60" rx="12" fill="rgba(255,255,255,1)" stroke="#31d7ff" stroke-width="1.6"/>
<text x="2407.0" y="1955.5" text-anchor="middle" class="title">Curso</text>
<text x="2407.0" y="1969.5" text-anchor="middle" class="body">velocidade e continuidade</text>
<rect x="2710" y="1781" width="186" height="60" rx="12" fill="rgba(255,255,255,1)" stroke="#31d7ff" stroke-width="1.6"/>
<text x="2803.0" y="1807.0" text-anchor="middle" class="title">Acelera??o</text>
<text x="2803.0" y="1821.0" text-anchor="middle" class="body">pensamentos r?pidos demais</text>
<rect x="2710" y="1875" width="186" height="60" rx="12" fill="rgba(255,255,255,1)" stroke="#31d7ff" stroke-width="1.6"/>
<text x="2803.0" y="1901.0" text-anchor="middle" class="title">Lentifica??o</text>
<text x="2803.0" y="1915.0" text-anchor="middle" class="body">processamento mais lento</text>
<rect x="2710" y="1969" width="186" height="60" rx="12" fill="rgba(255,255,255,1)" stroke="#31d7ff" stroke-width="1.6"/>
<text x="2803.0" y="1988.0" text-anchor="middle" class="title">Bloqueio</text>
<text x="2803.0" y="2002.0" text-anchor="middle" class="body">interrup??o s?bita do</text>
<text x="2803.0" y="2016.0" text-anchor="middle" class="body">fluxo</text>
<rect x="2710" y="2063" width="186" height="75" rx="12" fill="rgba(255,255,255,1)" stroke="#31d7ff" stroke-width="1.6"/>
<text x="2803.0" y="2089.5" text-anchor="middle" class="title">Roubo do pensamento</text>
<text x="2803.0" y="2103.5" text-anchor="middle" class="body">ideia de que o conte?do</text>
<text x="2803.0" y="2117.5" text-anchor="middle" class="body">foi retirado</text>
<rect x="2314" y="2320.5" width="186" height="60" rx="12" fill="rgba(255,255,255,1)" stroke="#31d7ff" stroke-width="1.6"/>
<text x="2407.0" y="2346.5" text-anchor="middle" class="title">Forma</text>
<text x="2407.0" y="2360.5" text-anchor="middle" class="body">arquitetura l?gica</text>
<rect x="2710" y="2172" width="186" height="75" rx="12" fill="rgba(255,255,255,1)" stroke="#31d7ff" stroke-width="1.6"/>
<text x="2803.0" y="2198.5" text-anchor="middle" class="title">Fuga de ideias</text>
<text x="2803.0" y="2212.5" text-anchor="middle" class="body">sucess?o r?pida com pouca</text>
<text x="2803.0" y="2226.5" text-anchor="middle" class="body">liga??o</text>
<rect x="2710" y="2281" width="186" height="60" rx="12" fill="rgba(255,255,255,1)" stroke="#31d7ff" stroke-width="1.6"/>
<text x="2803.0" y="2307.0" text-anchor="middle" class="title">Dissocia??o</text>
<text x="2803.0" y="2321.0" text-anchor="middle" class="body">sequ?ncia desorganizada</text>
<rect x="2710" y="2375" width="186" height="60" rx="12" fill="rgba(255,255,255,1)" stroke="#31d7ff" stroke-width="1.6"/>
<text x="2803.0" y="2401.0" text-anchor="middle" class="title">Descarrilamento</text>
<text x="2803.0" y="2415.0" text-anchor="middle" class="body">desvios laterais do tema</text>
<rect x="2710" y="2469" width="186" height="60" rx="12" fill="rgba(255,255,255,1)" stroke="#31d7ff" stroke-width="1.6"/>
<text x="2803.0" y="2495.0" text-anchor="middle" class="title">Disgrega??o</text>
<text x="2803.0" y="2509.0" text-anchor="middle" class="body">perda grave de coer?ncia</text>
<rect x="2314" y="2680.5" width="186" height="60" rx="12" fill="rgba(255,255,255,1)" stroke="#31d7ff" stroke-width="1.6"/>
<text x="2407.0" y="2706.5" text-anchor="middle" class="title">Conte?do</text>
<text x="2407.0" y="2720.5" text-anchor="middle" class="body">temas predominantes</text>
<rect x="2710" y="2563" width="186" height="76" rx="12" fill="rgba(255,255,255,1)" stroke="#31d7ff" stroke-width="1.6"/>
<text x="2803.0" y="2590.0" text-anchor="middle" class="title">Persecut?rio /</text>
<text x="2803.0" y="2604.0" text-anchor="middle" class="title">depreciativo</text>
<text x="2803.0" y="2618.0" text-anchor="middle" class="body">amea?a, culpa ou ru?na</text>
<rect x="2710" y="2673" width="186" height="76" rx="12" fill="rgba(255,255,255,1)" stroke="#31d7ff" stroke-width="1.6"/>
<text x="2803.0" y="2693.0" text-anchor="middle" class="title">M?stico / sexual /</text>
<text x="2803.0" y="2707.0" text-anchor="middle" class="title">grandioso</text>
<text x="2803.0" y="2721.0" text-anchor="middle" class="body">cren?as centrais</text>
<text x="2803.0" y="2735.0" text-anchor="middle" class="body">patol?gicas</text>
<rect x="2710" y="2783" width="186" height="75" rx="12" fill="rgba(255,255,255,1)" stroke="#31d7ff" stroke-width="1.6"/>
<text x="2803.0" y="2809.5" text-anchor="middle" class="title">M?gico vs l?gico</text>
<text x="2803.0" y="2823.5" text-anchor="middle" class="body">fantasia causal versus</text>
<text x="2803.0" y="2837.5" text-anchor="middle" class="body">causalidade real</text>
<rect x="902" y="3077.5" width="196" height="60" rx="12" fill="#fff4ed" stroke="#ff6aa8" stroke-width="1.6"/>
<text x="1000.0" y="3096.5" text-anchor="middle" class="title">Sensopercep??o e</text>
<text x="1000.0" y="3110.5" text-anchor="middle" class="title">psicoses</text>
<text x="1000.0" y="3124.5" text-anchor="middle" class="body">interpreta??o da realidade</text>
<rect x="476" y="2906.5" width="186" height="75" rx="12" fill="rgba(255,255,255,1)" stroke="#ff6aa8" stroke-width="1.6"/>
<text x="569.0" y="2933.0" text-anchor="middle" class="title">Sensa??o</text>
<text x="569.0" y="2947.0" text-anchor="middle" class="body">detec??o de est?mulos</text>
<text x="569.0" y="2961.0" text-anchor="middle" class="body">pelos sentidos</text>
<rect x="476" y="3015.5" width="186" height="75" rx="12" fill="rgba(255,255,255,1)" stroke="#ff6aa8" stroke-width="1.6"/>
<text x="569.0" y="3042.0" text-anchor="middle" class="title">Percep??o</text>
<text x="569.0" y="3056.0" text-anchor="middle" class="body">interpreta??o do material</text>
<text x="569.0" y="3070.0" text-anchor="middle" class="body">sensorial</text>
<rect x="476" y="3124.5" width="186" height="75" rx="12" fill="rgba(255,255,255,1)" stroke="#ff6aa8" stroke-width="1.6"/>
<text x="569.0" y="3144.0" text-anchor="middle" class="title">Transtornos da</text>
<text x="569.0" y="3158.0" text-anchor="middle" class="title">sensa??o</text>
<text x="569.0" y="3172.0" text-anchor="middle" class="body">podem decorrer de les?es</text>
<text x="569.0" y="3186.0" text-anchor="middle" class="body">org?nicas</text>
<rect x="476" y="3233.5" width="186" height="75" rx="12" fill="rgba(255,255,255,1)" stroke="#ff6aa8" stroke-width="1.6"/>
<text x="569.0" y="3260.0" text-anchor="middle" class="title">Psicose</text>
<text x="569.0" y="3274.0" text-anchor="middle" class="body">ju?zo delirante da</text>
<text x="569.0" y="3288.0" text-anchor="middle" class="body">realidade como fen?meno</text>
<rect x="1878" y="3110" width="196" height="60" rx="12" fill="#fff4ed" stroke="#ffb870" stroke-width="1.6"/>
<text x="1976.0" y="3129.0" text-anchor="middle" class="title">Esquizofrenia</text>
<text x="1976.0" y="3143.0" text-anchor="middle" class="body">espectro psic?tico e</text>
<text x="1976.0" y="3157.0" text-anchor="middle" class="body">evolu??o</text>
<rect x="2314" y="3001" width="186" height="60" rx="12" fill="rgba(255,255,255,1)" stroke="#ffb870" stroke-width="1.6"/>
<text x="2407.0" y="3027.0" text-anchor="middle" class="title">Fases</text>
<text x="2407.0" y="3041.0" text-anchor="middle" class="body">trajet?ria cl?nica</text>
<rect x="2710" y="2892" width="186" height="75" rx="12" fill="rgba(255,255,255,1)" stroke="#ffb870" stroke-width="1.6"/>
<text x="2803.0" y="2918.5" text-anchor="middle" class="title">Pr?dromica</text>
<text x="2803.0" y="2932.5" text-anchor="middle" class="body">isolamento,</text>
<text x="2803.0" y="2946.5" text-anchor="middle" class="body">despersonaliza??o e sinais</text>
<rect x="2710" y="3001" width="186" height="60" rx="12" fill="rgba(255,255,255,1)" stroke="#ffb870" stroke-width="1.6"/>
<text x="2803.0" y="3020.0" text-anchor="middle" class="title">Aguda</text>
<text x="2803.0" y="3034.0" text-anchor="middle" class="body">del?rios e alucina??es em</text>
<text x="2803.0" y="3048.0" text-anchor="middle" class="body">pico</text>
<rect x="2710" y="3095" width="186" height="75" rx="12" fill="rgba(255,255,255,1)" stroke="#ffb870" stroke-width="1.6"/>
<text x="2803.0" y="3121.5" text-anchor="middle" class="title">Residual</text>
<text x="2803.0" y="3135.5" text-anchor="middle" class="body">sintomas negativos e</text>
<text x="2803.0" y="3149.5" text-anchor="middle" class="body">atenua??o do surto</text>
<rect x="2314" y="3204" width="186" height="75" rx="12" fill="rgba(255,255,255,1)" stroke="#ffb870" stroke-width="1.6"/>
<text x="2407.0" y="3230.5" text-anchor="middle" class="title">Sintomas negativos</text>
<text x="2407.0" y="3244.5" text-anchor="middle" class="body">marca cl?nica importante</text>
<text x="2407.0" y="3258.5" text-anchor="middle" class="body">do transtorno</text>
<rect x="2314" y="3313" width="186" height="75" rx="12" fill="rgba(255,255,255,1)" stroke="#ffb870" stroke-width="1.6"/>
<text x="2407.0" y="3339.5" text-anchor="middle" class="title">Interven??o precoce</text>
<text x="2407.0" y="3353.5" text-anchor="middle" class="body">fase pr?dr?mica ? janela</text>
<text x="2407.0" y="3367.5" text-anchor="middle" class="body">cr?tica</text>
</svg>